<svg width="40" height="38" viewBox="0 0 40 38" fill="none" xmlns="http://www.w3.org/2000/svg">
<g id="AddIdeaIcon">
<g id="carbon:idea">
<path id="base2" d="M11.5 24.5H20.5V25.5H11.5V24.5Z" fill="white" stroke="white"/>
<path id="base" d="M13.5 28.5H18.5V29.5H13.5V28.5Z" fill="white" stroke="white"/>
<path id="lightBulbIcon" d="M16 2C13.3479 2 10.8043 3.05357 8.92898 4.92893C7.05361 6.8043 6.00005 9.34784 6.00005 12C5.93242 13.4533 6.21082 14.902 6.81234 16.2267C7.41386 17.5514 8.32132 18.7144 9.46005 19.62C10.46 20.55 11 21.08 11 22H13C13 20.16 11.89 19.13 10.81 18.14C9.8754 17.4243 9.13052 16.4903 8.64063 15.4198C8.15074 14.3494 7.93079 13.1752 8.00005 12C8.00005 9.87827 8.8429 7.84344 10.3432 6.34315C11.8435 4.84285 13.8783 4 16 4C18.1218 4 20.1566 4.84285 21.6569 6.34315C23.1572 7.84344 24 9.87827 24 12C24.0682 13.176 23.8467 14.3508 23.355 15.4213C22.8633 16.4918 22.1165 17.4253 21.18 18.14C20.11 19.14 19 20.14 19 22H21C21 21.08 21.53 20.55 22.54 19.61C23.678 18.706 24.585 17.5447 25.1865 16.2217C25.7881 14.8987 26.0669 13.4518 26 12C26 10.6868 25.7414 9.38642 25.2388 8.17317C24.7363 6.95991 23.9997 5.85752 23.0711 4.92893C22.1425 4.00035 21.0401 3.26375 19.8269 2.7612C18.6136 2.25866 17.3133 2 16 2Z" fill="white"/>
</g>
<g id="addIcon">
<path id="Vector" d="M28.75 25.25V20H27.25V25.25H22V26.75H27.25V32H28.75V26.75H34V25.25H28.75Z" fill="white"/>
</g>
</g>
</svg>
