<svg width="250" height="117" viewBox="0 0 209 117" fill="none" xmlns="http://www.w3.org/2000/svg">
<style>
    #objectThrown {
  animation: throw 2s ease infinite alternate;
}

#Arm {
  animation: throwFromHand 2s ease infinite alternate;
  transform-origin: center;
  transform-box: fill-box;
}

#GarbageTop {
  animation: lift 2s ease infinite alternate;
  transform-origin: center;
  transform-box: fill-box;
}

@keyframes throw {
  0% {
    transform: translate(0, 0);
  }
  50% {
    transform: translate(10px, -10px);
  }
  100% {
    transform: translate(30px, 0);
  }
}



@keyframes lift {
  0% {
    transform: translate(0, 0);
  }
  50% {
    transform: rotateZ(30deg);
  }
  100% {
    transform: translate(10px, -10px);
  }
}


@keyframes throwFromHand {
  0% {
    transform: rotateZ(0deg);
  }
  50% {
    transform: rotateZ(-30deg);
  }
  100% {
    transform: rotateZ(0deg);
  }
}


</style>
<g id="deleteSVG" clip-path="url(#clip0)">
<g id="Garbage">
<path id="Path 8" d="M178.059 116.835H138.949L138.942 116.616L137.074 63.2065H179.934L178.059 116.835ZM139.388 116.381H177.62L179.464 63.6607H137.544L139.388 116.381Z" fill="#3F3D56"/>
<g id="Group 1">
<path id="Rectangle 17" d="M148.279 73.1024H145.304V109.914H148.279V73.1024Z" fill="#3F3D56"/>
<path id="Rectangle 18" d="M159.991 73.1024H157.017V109.914H159.991V73.1024Z" fill="#3F3D56"/>
<path id="Rectangle 19" d="M171.704 73.1024H168.729V109.914H171.704V73.1024Z" fill="#3F3D56"/>
</g>
<g id="GarbageTop">
<path id="Vector" d="M204.786 78.8901L204.594 78.7688L156.015 48.0689L160.229 41.4008L160.421 41.5221L209 72.2219L204.786 78.8901ZM156.641 47.9276L204.645 78.2634L208.373 72.3634L160.37 42.0273L156.641 47.9276Z" fill="#3F3D56"/>
<path id="Path 10" d="M193.057 45.5945C191.645 44.7009 190.006 44.2311 188.335 44.2409C186.664 44.2507 185.031 44.7397 183.629 45.6499C182.228 46.5601 181.117 47.8532 180.428 49.3758C179.74 50.8985 179.503 52.5867 179.745 54.2402L182.061 55.7041C181.479 54.3524 181.345 52.8498 181.678 51.4164C182.012 49.983 182.796 48.694 183.915 47.7382C185.034 46.7824 186.43 46.21 187.897 46.1048C189.365 45.9996 190.828 46.3671 192.072 47.1536C193.316 47.94 194.276 49.104 194.811 50.4752C195.345 51.8464 195.427 53.3527 195.043 54.7736C194.66 56.1945 193.832 57.4553 192.68 58.3714C191.528 59.2876 190.113 59.8109 188.642 59.8647L190.959 61.3286C192.556 60.8382 193.98 59.8997 195.06 58.6246C196.14 57.3496 196.832 55.7913 197.053 54.1349C197.274 52.4785 197.015 50.7934 196.307 49.2796C195.599 47.7658 194.472 46.4868 193.059 45.5945H193.057Z" fill="#3F3D56"/>
</g>
</g>
<path id="Rectangle 21" d="M206.433 116.521H0V116.976H206.433V116.521Z" fill="#3F3D56"/>
<g id="Man">
<path id="Path 111" d="M90.1666 113.422H86.8591L85.2849 100.665H90.1675L90.1666 113.422Z" fill="#FEB8B8"/>
<path id="Path 112" d="M80.4807 116.493H90.8752V112.477H84.441C83.3907 112.477 82.3833 112.894 81.6406 113.637C80.8979 114.38 80.4807 115.387 80.4807 116.437V116.493Z" fill="#2F2E41"/>
<path id="Path 113" d="M89.0042 93.6544L91.2856 96.0491L101.608 88.3898L98.2407 84.8554L89.0042 93.6544Z" fill="#FEB8B8"/>
<path id="Path 114" d="M93.6359 97.1462L89.1963 92.4879L86.2887 95.259L93.4609 102.785L93.5012 102.746C93.8777 102.387 94.1799 101.958 94.3905 101.482C94.601 101.007 94.7158 100.494 94.7283 99.9741C94.7408 99.4541 94.6508 98.9368 94.4633 98.4515C94.2759 97.9663 93.9947 97.5228 93.6359 97.1463V97.1462Z" fill="#2F2E41"/>
<path id="Path 115" d="M65.9831 58.7043C65.7738 58.3675 65.6408 57.989 65.5936 57.5953C65.5464 57.2016 65.586 56.8023 65.7098 56.4256C65.8335 56.0489 66.0383 55.7039 66.3098 55.4148C66.5812 55.1258 66.9128 54.8998 67.281 54.7528L80.2663 21.6583L85.3279 24.689L70.903 56.4374C71.1091 57.0725 71.0751 57.7613 70.8073 58.373C70.5395 58.9847 70.0566 59.477 69.4501 59.7564C68.8436 60.0359 68.1557 60.0831 67.5167 59.8892C66.8777 59.6953 66.332 59.2737 65.9831 58.7043Z" fill="#FEB8B8"/>
<g id="Arm">
<path id="Hand" d="M115.271 61.0764C114.875 61.0481 114.491 60.9334 114.144 60.7403C113.798 60.5473 113.498 60.2806 113.265 59.959C113.033 59.6375 112.874 59.2689 112.8 58.8793C112.725 58.4896 112.737 58.0885 112.835 57.704L93.678 27.7567L99.1037 25.4402L116.326 55.7632C116.962 55.9687 117.5 56.4007 117.839 56.9771C118.177 57.5534 118.292 58.234 118.162 58.8896C118.032 59.5452 117.666 60.1301 117.133 60.5334C116.6 60.9367 115.937 61.1303 115.271 61.0773V61.0764Z" fill="#FEB8B8"/>
</g>
<path id="Path 117" d="M80.3941 55.3905L83.7849 105.787L91.8883 105.072L93.5565 67.8907L98.0849 83.8589L107.857 84.5738L103.989 53.0071L80.3941 55.3905Z" fill="#2F2E41"/>
<path id="Path 118" d="M99.5149 81.4757L98.0842 83.8591L88.0753 90.7706L95.2253 94.5841C95.2253 94.5841 109.049 86.9574 107.857 84.574L99.5149 81.4757Z" fill="#2F2E41"/>
<path id="Path 119" d="M73.2982 35.0006L76.119 27.0522C76.7466 25.2836 77.7186 23.6571 78.979 22.2667C80.2393 20.8763 81.7629 19.7497 83.4615 18.952C87.2795 17.5455 91.4319 17.3182 95.3806 18.2996L96.4071 18.5544C99.1443 19.2178 101.709 20.4565 103.93 22.188C105.669 23.5583 107.232 25.2933 107.372 27.1596C107.372 27.1636 107.373 27.1675 107.375 27.1712C107.856 29.2814 108.095 40.2446 108.095 40.2446H103.848L104.52 55.0212L104.465 54.9143C104.465 54.9143 79.9715 59.5496 79.9715 57.1662V41.9124L79.4694 36.3894L73.2982 35.0006Z" fill="#EDECF3"/>
<path id="Ellipse 12" d="M96.1609 16.2334C99.9097 16.2334 102.949 13.1944 102.949 9.44565C102.949 5.69688 99.9097 2.6579 96.1609 2.6579C92.4122 2.6579 89.3732 5.69688 89.3732 9.44565C89.3732 13.1944 92.4122 16.2334 96.1609 16.2334Z" fill="#FEB8B8"/>
<path id="Path 120" d="M97.1777 6.40159L102.448 6.61279C103.111 6.61075 103.835 6.58736 104.34 6.15859C105.101 5.51159 104.974 4.29071 104.566 3.37868C103.431 0.839259 100.898 -0.0704973 98.1167 0.00421823C95.3355 0.0789337 92.4211 1.02162 90.9234 3.36528C89.4257 5.70894 89.021 8.66849 89.5851 11.3919C90.2372 10.0071 91.2412 8.81755 92.4968 7.94205C93.7524 7.06656 95.2156 6.53571 96.7405 6.4025L97.1777 6.40159Z" fill="#2F2E41"/>
</g>
<g id="objectThrown">
<path id="Path 81" d="M128.475 72.7954L109.398 59.4254C109.221 59.3007 109.101 59.1108 109.063 58.8973C109.026 58.6839 109.074 58.4642 109.198 58.2865L124.171 36.9227C124.296 36.7455 124.486 36.6249 124.699 36.5873C124.913 36.5498 125.132 36.5984 125.31 36.7224L144.387 50.0924C144.564 50.2171 144.684 50.407 144.722 50.6204C144.76 50.8339 144.711 51.0535 144.587 51.2312L129.614 72.5945C129.49 72.7719 129.3 72.8927 129.086 72.9304C128.873 72.968 128.653 72.9195 128.475 72.7954Z" fill="#96FF71"/>
<path id="Path 82" d="M132.765 58.2881L121.571 50.4428C121.442 50.3521 121.332 50.2368 121.247 50.1034C121.162 49.97 121.104 49.8213 121.077 49.6656C121.049 49.5099 121.053 49.3503 121.087 49.196C121.121 49.0417 121.186 48.8956 121.276 48.7662C121.367 48.6367 121.483 48.5264 121.616 48.4415C121.749 48.3567 121.898 48.2989 122.054 48.2715C122.209 48.2441 122.369 48.2477 122.523 48.2819C122.678 48.3162 122.824 48.3806 122.953 48.4713L134.147 56.3166C134.408 56.4998 134.586 56.7794 134.642 57.0938C134.697 57.4082 134.625 57.7318 134.442 57.9932C134.259 58.2547 133.979 58.4326 133.665 58.4879C133.35 58.5432 133.027 58.4713 132.765 58.2881Z" fill="white"/>
<path id="Path 83" d="M130.196 61.9536L119.002 54.1083C118.873 54.0177 118.762 53.9024 118.677 53.769C118.592 53.6356 118.534 53.4868 118.507 53.331C118.479 53.1752 118.483 53.0156 118.517 52.8612C118.551 52.7068 118.616 52.5606 118.707 52.4311C118.797 52.3016 118.913 52.1912 119.046 52.1063C119.18 52.0214 119.329 51.9637 119.484 51.9363C119.64 51.909 119.8 51.9126 119.954 51.947C120.109 51.9814 120.255 52.0459 120.384 52.1368L131.578 59.9821C131.839 60.1654 132.017 60.445 132.072 60.7592C132.127 61.0735 132.055 61.3968 131.872 61.6581C131.689 61.9194 131.41 62.0973 131.095 62.1527C130.781 62.2081 130.458 62.1365 130.196 61.9536Z" fill="white"/>
<path id="Path 84" d="M127.6 65.6586L116.406 57.8133C116.276 57.7226 116.166 57.6073 116.081 57.4739C115.996 57.3405 115.938 57.1918 115.911 57.0361C115.884 56.8804 115.887 56.7208 115.921 56.5665C115.956 56.4122 116.02 56.2661 116.111 56.1367C116.202 56.0072 116.317 55.8969 116.45 55.812C116.584 55.7271 116.732 55.6694 116.888 55.642C117.044 55.6146 117.203 55.6181 117.358 55.6524C117.512 55.6867 117.658 55.7511 117.787 55.8418L128.981 63.687C129.243 63.8703 129.421 64.1499 129.476 64.4643C129.531 64.7787 129.459 65.1023 129.276 65.3637C129.093 65.6251 128.813 65.8031 128.499 65.8584C128.185 65.9137 127.861 65.8418 127.6 65.6586V65.6586Z" fill="white"/>
<path id="Path 85" d="M132.734 51.0368L128.398 47.9981C128.268 47.9074 128.158 47.7921 128.073 47.6587C127.988 47.5253 127.93 47.3765 127.903 47.2207C127.875 47.065 127.879 46.9053 127.913 46.7509C127.947 46.5965 128.012 46.4503 128.102 46.3208C128.193 46.1913 128.309 46.0809 128.442 45.996C128.575 45.9111 128.724 45.8534 128.88 45.826C129.036 45.7987 129.196 45.8023 129.35 45.8367C129.504 45.8711 129.65 45.9356 129.78 46.0265L134.116 49.0652C134.377 49.2485 134.555 49.528 134.61 49.8425C134.666 50.1569 134.594 50.4804 134.41 50.7419C134.227 51.0033 133.948 51.1813 133.633 51.2366C133.319 51.2919 132.995 51.22 132.734 51.0368Z" fill="white"/>
</g>
</g>
<defs>
<clipPath id="clip0">
<rect width="250" height="116.976" fill="white"/>
</clipPath>
</defs>
</svg>